<svg width="475" height="197" viewBox="0 0 475 197" fill="none" xmlns="http://www.w3.org/2000/svg">
<path d="M59.5343 196.93C47.9197 196.93 37.7023 194.659 28.8822 190.118C20.0621 185.49 13.1632 179.028 8.18554 170.731C3.20785 162.348 0.719008 152.436 0.719008 140.996C0.719008 128.858 3.68815 118.204 9.62645 109.034C15.5647 99.7775 24.7342 92.8787 37.1347 88.3376L37.0037 95.2802C26.5244 92.2237 18.5775 86.5037 13.1632 78.1202C7.7489 69.7368 5.04174 60.48 5.04174 50.35C5.04174 39.958 7.35592 31.0505 11.9843 23.6277C16.7 16.1175 23.1623 10.3975 31.3711 6.46777C39.5799 2.45069 48.9676 0.442154 59.5343 0.442154C70.101 0.442154 79.445 2.45069 87.5665 6.46777C95.7753 10.3975 102.194 16.1175 106.822 23.6277C111.538 31.0505 113.896 39.958 113.896 50.35C113.896 60.48 111.32 69.6931 106.167 77.9893C101.015 86.2854 93.0682 91.9617 82.3269 95.0182L81.4099 88.4686C93.8978 92.835 103.198 99.6466 109.311 108.903C115.424 118.16 118.481 128.858 118.481 140.996C118.481 152.436 115.948 162.348 110.883 170.731C105.905 179.028 98.9628 185.49 90.0554 190.118C81.2353 194.659 71.0616 196.93 59.5343 196.93ZM59.5343 182.128C72.2842 182.128 82.5888 178.591 90.4484 171.517C98.3952 164.444 102.369 154.27 102.369 140.996C102.369 127.548 98.4388 117.33 90.5793 110.344C82.8072 103.271 72.4588 99.7339 59.5343 99.7339C46.5225 99.7339 36.0868 103.271 28.2273 110.344C20.4551 117.33 16.569 127.548 16.569 140.996C16.569 154.27 20.5424 164.444 28.4893 171.517C36.4361 178.591 46.7844 182.128 59.5343 182.128ZM59.5343 84.9318C70.8869 84.9318 80.1 82.05 87.1736 76.2864C94.2471 70.4354 97.7839 61.7899 97.7839 50.35C97.7839 38.9101 94.2471 30.3083 87.1736 24.5446C80.1 18.6937 70.8869 15.7682 59.5343 15.7682C48.0944 15.7682 38.8376 18.6937 31.7641 24.5446C24.6905 30.3083 21.1537 38.9101 21.1537 50.35C21.1537 61.7899 24.6905 70.4354 31.7641 76.2864C38.8376 82.05 48.0944 84.9318 59.5343 84.9318ZM205.416 196.93C193.714 196.93 183.06 194.092 173.454 188.415C163.848 182.652 156.207 174.967 150.531 165.361C144.854 155.667 142.016 144.882 142.016 133.006V64.8901C142.016 52.8388 144.854 41.9665 150.531 32.2731C156.207 22.4924 163.848 14.7639 173.454 9.08761C183.148 3.32397 194.02 0.442154 206.071 0.442154C217.249 0.442154 227.51 3.10565 236.854 8.43265C246.286 13.6723 253.796 20.7459 259.385 29.6533L247.333 38.4298C243.054 31.4435 237.291 25.8545 230.043 21.6628C222.794 17.3837 214.804 15.2442 206.071 15.2442C196.727 15.2442 188.387 17.5147 181.052 22.0558C173.716 26.5968 167.909 32.5788 163.63 40.0016C159.351 47.3372 157.211 55.3277 157.211 63.9731V108.379L152.757 103.14C158.259 93.7083 165.682 86.0671 175.026 80.2161C184.457 74.2778 194.893 71.3087 206.333 71.3087C217.86 71.3087 228.34 74.1468 237.771 79.8231C247.29 85.4121 254.8 92.966 260.302 102.485C265.891 111.916 268.685 122.395 268.685 133.923C268.685 145.537 265.803 156.104 260.04 165.623C254.363 175.141 246.722 182.739 237.116 188.415C227.51 194.092 216.943 196.93 205.416 196.93ZM205.416 182.128C214.324 182.128 222.401 179.988 229.65 175.709C236.985 171.343 242.792 165.535 247.071 158.287C251.351 150.952 253.49 142.83 253.49 133.923C253.49 125.015 251.351 116.937 247.071 109.689C242.792 102.354 236.985 96.5464 229.65 92.2674C222.401 87.9883 214.324 85.8488 205.416 85.8488C196.509 85.8488 188.387 87.9883 181.052 92.2674C173.803 96.5464 167.996 102.354 163.63 109.689C159.351 116.937 157.211 125.015 157.211 133.923C157.211 142.83 159.351 150.952 163.63 158.287C167.996 165.535 173.803 171.343 181.052 175.709C188.387 179.988 196.509 182.128 205.416 182.128ZM326.058 49H350.258L311.858 193H287.658L326.058 49ZM418.532 195.7C405.632 195.7 394.802 192.85 386.042 187.15C377.282 181.39 370.682 173.44 366.242 163.3C361.802 153.16 359.582 141.46 359.582 128.2C359.582 114.94 361.802 103.24 366.242 93.1C370.682 82.96 377.282 75.04 386.042 69.34C394.802 63.58 405.632 60.7 418.532 60.7C433.592 60.7 445.802 64.6 455.162 72.4C464.582 80.2 470.972 90.64 474.332 103.72L463.622 106.33C460.862 95.47 455.702 86.86 448.142 80.5C440.642 74.08 430.772 70.87 418.532 70.87C407.912 70.87 399.062 73.3 391.982 78.16C384.962 83.02 379.652 89.77 376.052 98.41C372.512 107.05 370.712 116.98 370.652 128.2C370.532 139.42 372.242 149.35 375.782 157.99C379.382 166.57 384.752 173.32 391.892 178.24C399.032 183.1 407.912 185.53 418.532 185.53C430.772 185.53 440.642 182.32 448.142 175.9C455.702 169.48 460.862 160.87 463.622 150.07L474.332 152.68C470.972 165.76 464.582 176.2 455.162 184C445.802 191.8 433.592 195.7 418.532 195.7Z" fill="black"/>
</svg>
