<svg width="63" height="40" viewBox="0 0 63 40" fill="none" xmlns="http://www.w3.org/2000/svg">
<path d="M1.66373 39V11.864H7.05856V39H1.66373ZM4.36115 7.33232C3.35411 7.33232 2.50892 6.99065 1.82557 6.3073C1.14223 5.58799 0.800555 4.7428 0.800555 3.77173C0.800555 2.76469 1.14223 1.9195 1.82557 1.23615C2.50892 0.552808 3.35411 0.211135 4.36115 0.211135C5.33222 0.211135 6.15943 0.552808 6.84277 1.23615C7.56208 1.9195 7.92174 2.76469 7.92174 3.77173C7.92174 4.7428 7.56208 5.58799 6.84277 6.3073C6.15943 6.99065 5.33222 7.33232 4.36115 7.33232ZM12.5841 39V11.864H17.7091V19.147L16.2525 18.6615C16.9719 16.5755 18.1947 14.9211 19.921 13.6982C21.6833 12.4754 23.6974 11.864 25.9632 11.864H28.6067V16.8272H25.1001C23.6615 16.8272 22.4027 17.1689 21.3237 17.8522C20.2807 18.4996 19.4535 19.4167 18.8421 20.6036C18.2666 21.7905 17.9789 23.1931 17.9789 24.8116V39H12.5841ZM30.9855 39V11.864H36.3803V39H30.9855ZM33.6829 7.33232C32.6759 7.33232 31.8307 6.99065 31.1473 6.3073C30.464 5.58799 30.1223 4.7428 30.1223 3.77173C30.1223 2.76469 30.464 1.9195 31.1473 1.23615C31.8307 0.552808 32.6759 0.211135 33.6829 0.211135C34.654 0.211135 35.4812 0.552808 36.1645 1.23615C36.8839 1.9195 37.2435 2.76469 37.2435 3.77173C37.2435 4.7428 36.8839 5.58799 36.1645 6.3073C35.4812 6.99065 34.654 7.33232 33.6829 7.33232ZM51.2389 39.7553C48.3257 39.7553 45.862 39.0719 43.848 37.7052C41.8339 36.3026 40.5032 34.3784 39.8558 31.9328L44.7651 30.692L45.4125 30.8538C45.7721 32.1126 46.5094 33.1016 47.6244 33.821C48.7752 34.5043 50.106 34.846 51.6165 34.846C53.0911 34.846 54.3499 34.5223 55.3929 33.8749C56.4359 33.2275 56.9574 32.3644 56.9574 31.2854C56.9574 30.3862 56.6517 29.6849 56.0403 29.1814C55.4289 28.6419 54.5118 28.2283 53.2889 27.9406L48.2178 26.8077C45.6642 26.2322 43.7581 25.2971 42.4993 24.0024C41.2405 22.6716 40.6111 21.0712 40.6111 19.201C40.6111 17.5825 41.0606 16.1798 41.9598 14.993C42.8589 13.7702 44.0817 12.8171 45.6283 12.1337C47.2107 11.4504 48.991 11.1087 50.9691 11.1087C53.7745 11.1087 56.1482 11.81 58.0903 13.2127C60.0325 14.5794 61.3092 16.5215 61.9207 19.0391L57.1732 20.0641L56.5798 19.9562C56.2561 18.7334 55.5368 17.7803 54.4218 17.097C53.3429 16.3777 52.12 16.018 50.7534 16.018C49.4226 16.018 48.2897 16.3057 47.3546 16.8812C46.4555 17.4207 46.0059 18.14 46.0059 19.0391C46.0059 19.7584 46.2936 20.3878 46.8691 20.9273C47.4445 21.4308 48.3257 21.8085 49.5125 22.0602L54.6376 23.2471C57.2272 23.8225 59.1513 24.7397 60.4101 25.9984C61.7049 27.2572 62.3523 28.9117 62.3523 30.9617C62.3523 32.76 61.8667 34.3245 60.8956 35.6552C59.9605 36.95 58.6478 37.957 56.9574 38.6763C55.303 39.3956 53.3968 39.7553 51.2389 39.7553Z" fill="black"/>
</svg>
