<svg width="105" height="30" viewBox="0 0 105 30" fill="none" xmlns="http://www.w3.org/2000/svg">
<path d="M0.00323296 18.4097C-0.0262884 18.1632 0.149664 17.9394 0.396237 17.9098L16.2365 16.0341L20.19 15.5607L33.078 14.0409C33.3246 14.0114 33.5484 14.1873 33.5779 14.4339L33.8452 16.6663C33.8747 16.9129 33.6988 17.1367 33.4522 17.1662L20.1508 18.7355L13.9701 19.4757L0.77045 21.0351C0.523865 21.0647 0.300029 20.8887 0.270506 20.6421L0.00323296 18.4097Z" fill="white"/>
<path d="M7.77091 4.58162C7.65115 4.36405 7.73045 4.0906 7.94801 3.97085L9.91779 2.88668C10.1354 2.76693 10.4088 2.84622 10.5285 3.06378L15.4654 11.7636C15.5851 11.9812 15.5058 12.2546 15.2883 12.3744L13.3185 13.4585C13.1009 13.5783 12.8275 13.499 12.7077 13.2814L7.77091 4.58162ZM16.7925 19.1621C16.6728 18.9446 16.7521 18.6711 16.9696 18.5514L18.9394 17.4672C19.157 17.3474 19.4304 17.4267 19.5502 17.6443L20.1508 18.7355L24.6292 26.8716C24.7489 27.0891 24.6696 27.3626 24.4521 27.4823L22.4823 28.5665C22.2647 28.6862 21.9913 28.607 21.8715 28.3894L17.3305 20.1395L16.7925 19.1621Z" fill="white"/>
<path d="M26.0599 1.72083C26.2928 1.80715 26.4116 2.06589 26.3253 2.29875L25.9346 3.35276L25.7781 3.77157C24.2317 7.87249 22.3584 11.8128 20.19 15.5607C19.2872 17.1211 18.3333 18.6481 17.3305 20.1395C16.2856 21.6938 15.1875 23.2093 14.0391 24.6835C13.4853 25.3944 12.446 25.4745 11.7761 24.8718C11.1529 24.3113 11.0792 23.362 11.5938 22.7004C12.413 21.647 13.2055 20.5717 13.9701 19.4757C14.7553 18.3501 15.5111 17.2025 16.2365 16.0341C18.9215 11.7093 21.189 7.09873 22.9831 2.25878L23.374 1.2047C23.4603 0.971872 23.719 0.853103 23.9519 0.939411L26.0599 1.72083Z" fill="white"/>
<path d="M43.689 17.6006L38.4009 9.83018V9.51844H39.5555L44.8551 17.2888V17.6006H43.689ZM38.4009 17.6006V9.51844H39.5555V17.6006H38.4009ZM43.689 17.6006V9.51844H44.8551V17.6006H43.689ZM48.8724 17.7622C48.2951 17.7622 47.7832 17.6352 47.3367 17.3812C46.898 17.1195 46.5555 16.7577 46.3092 16.2959C46.0628 15.8341 45.9397 15.2991 45.9397 14.691C45.9397 14.0829 46.059 13.5518 46.2976 13.0977C46.5439 12.6358 46.8826 12.2779 47.3137 12.0239C47.7524 11.7622 48.2566 11.6313 48.8262 11.6313C49.3881 11.6313 49.8769 11.7622 50.2925 12.0239C50.7159 12.2856 51.043 12.6551 51.2739 13.1323C51.5125 13.6018 51.6318 14.1522 51.6318 14.7834V14.9566L51.4586 15.1298H46.5285V14.1137H51.0776L50.4888 14.3446C50.4734 13.9983 50.3887 13.7019 50.2348 13.4556C50.0885 13.2093 49.8922 13.0207 49.6459 12.8899C49.4073 12.7513 49.1379 12.682 48.8377 12.682C48.5144 12.682 48.2181 12.759 47.9487 12.9129C47.6793 13.0669 47.4676 13.2824 47.3137 13.5595C47.1674 13.8289 47.0943 14.1445 47.0943 14.5063V14.8527C47.0943 15.2067 47.1713 15.5262 47.3252 15.811C47.4791 16.0881 47.6908 16.3074 47.9602 16.4691C48.2296 16.6307 48.5337 16.7116 48.8724 16.7116C49.1956 16.7116 49.4804 16.6307 49.7268 16.4691C49.9808 16.2997 50.1809 16.0765 50.3271 15.7994H50.4657L51.4009 16.2035C51.1777 16.6885 50.8467 17.0695 50.408 17.3466C49.9692 17.6237 49.4573 17.7622 48.8724 17.7622ZM57.859 11.793V17.6006H56.7621V16.0419L57.0738 16.1343C56.9584 16.4652 56.7852 16.7539 56.5543 17.0002C56.3234 17.2388 56.0501 17.4274 55.7345 17.5659C55.4266 17.6968 55.0918 17.7622 54.73 17.7622C54.3221 17.7622 53.9526 17.6737 53.6216 17.4967C53.2906 17.3119 53.0289 17.0464 52.8365 16.7C52.6441 16.3459 52.5478 15.911 52.5478 15.3953V11.793H53.7024V15.072C53.7024 15.4569 53.7563 15.7686 53.8641 16.0072C53.9795 16.2459 54.1373 16.4191 54.3375 16.5268C54.5376 16.6269 54.7685 16.6769 55.0302 16.6769C55.2919 16.6769 55.5498 16.6115 55.8038 16.4806C56.0655 16.3498 56.281 16.1458 56.4504 15.8687C56.6197 15.5916 56.7044 15.2337 56.7044 14.7949V11.793H57.859ZM59.1398 17.6006V11.793H60.2367V13.3517L59.925 13.2478C60.0789 12.8013 60.3406 12.4473 60.7101 12.1855C61.0872 11.9238 61.5183 11.793 62.0032 11.793H62.569V12.8552H61.8185C61.5106 12.8552 61.2412 12.9283 61.0103 13.0746C60.7871 13.2131 60.61 13.4094 60.4792 13.6634C60.356 13.9174 60.2944 14.2176 60.2944 14.564V17.6006H59.1398ZM64.7692 17.7622C64.3766 17.7622 64.0226 17.6853 63.707 17.5313C63.3991 17.3774 63.1566 17.1657 62.9796 16.8963C62.8025 16.6192 62.714 16.3036 62.714 15.9495C62.714 15.4184 62.8988 14.9951 63.2682 14.6795C63.6377 14.3562 64.1611 14.1676 64.8385 14.1137L67.0784 13.929V14.9219L65.0347 15.0836C64.6422 15.1144 64.3535 15.199 64.1688 15.3376C63.9841 15.4761 63.8917 15.6647 63.8917 15.9033C63.8917 16.1343 63.9918 16.3267 64.1919 16.4806C64.392 16.6269 64.646 16.7 64.9539 16.7C65.2772 16.7 65.5697 16.623 65.8314 16.4691C66.1008 16.3151 66.3125 16.1112 66.4664 15.8572C66.6204 15.5954 66.6974 15.3145 66.6974 15.0143V14.0675C66.6974 13.6596 66.5665 13.3247 66.3048 13.063C66.0508 12.8013 65.7121 12.6705 65.2888 12.6705C64.9347 12.6705 64.6383 12.7551 64.3997 12.9245C64.1688 13.0938 64.0149 13.317 63.9379 13.5942H63.8109L62.8179 13.317C62.9719 12.8013 63.2644 12.3895 63.6954 12.0816C64.1265 11.7737 64.6576 11.6198 65.2888 11.6198C66.097 11.6198 66.7243 11.8584 67.1707 12.3356C67.6172 12.8052 67.8404 13.4671 67.8404 14.3215V17.6006H66.7782V15.9149L67.1938 16.0419C67.1015 16.3575 66.936 16.6461 66.6974 16.9078C66.4664 17.1695 66.1855 17.3774 65.8545 17.5313C65.5235 17.6853 65.1618 17.7622 64.7692 17.7622ZM69.2443 17.6006V9.28752L70.3643 9.14897L70.3989 9.24134V17.6006H69.2443ZM77.0862 17.6006L74.165 9.76091L74.0958 9.51844H75.2504L78.3216 17.5082V17.6006H77.0862ZM71.0246 17.6006V17.5082L74.0958 9.51844H75.2504L75.158 9.76091L72.2369 17.6006H71.0246ZM72.2946 15.6031L72.641 14.4947H76.8091L77.1554 15.6031H72.2946ZM78.8838 17.6006V11.793H79.9807V13.3517L79.6689 13.2478C79.8229 12.8013 80.0846 12.4473 80.4541 12.1855C80.8312 11.9238 81.2623 11.793 81.7472 11.793H82.3129V12.8552H81.5625C81.2546 12.8552 80.9852 12.9283 80.7542 13.0746C80.531 13.2131 80.354 13.4094 80.2231 13.6634C80.1 13.9174 80.0384 14.2176 80.0384 14.564V17.6006H78.8838ZM85.356 17.7622C84.771 17.7622 84.2553 17.6352 83.8089 17.3812C83.3624 17.1195 83.0122 16.7577 82.7582 16.2959C82.5119 15.8341 82.3887 15.2991 82.3887 14.691C82.3887 14.0829 82.5119 13.5518 82.7582 13.0977C83.0122 12.6358 83.3624 12.2779 83.8089 12.0239C84.2553 11.7622 84.771 11.6313 85.356 11.6313C85.8102 11.6313 86.2143 11.7083 86.5683 11.8623C86.9301 12.0162 87.238 12.2433 87.492 12.5435C87.746 12.836 87.9346 13.1977 88.0578 13.6288L87.0764 13.9059H86.9494C86.8262 13.5287 86.6184 13.2324 86.3259 13.0169C86.0411 12.8013 85.7178 12.6936 85.356 12.6936C84.9865 12.6936 84.6671 12.7782 84.3977 12.9476C84.1283 13.1169 83.9166 13.3517 83.7627 13.6519C83.6164 13.9444 83.5433 14.2908 83.5433 14.691C83.5433 15.0913 83.6164 15.4415 83.7627 15.7417C83.9166 16.0419 84.1283 16.2767 84.3977 16.446C84.6671 16.6076 84.9865 16.6885 85.356 16.6885C85.6177 16.6885 85.8563 16.6423 86.0719 16.5499C86.2874 16.4575 86.4721 16.3228 86.6261 16.1458C86.7877 15.9611 86.9109 15.7417 86.9955 15.4877H87.1225L88.1155 15.7648C87.9769 16.1958 87.7768 16.5615 87.5151 16.8616C87.2534 17.1618 86.9417 17.3889 86.5799 17.5429C86.2258 17.6891 85.8179 17.7622 85.356 17.7622Z" fill="white"/>
<path d="M89.6412 4.00061V0.806865H89.9834V4.00061H89.6412ZM88.6375 1.13993V0.806865H90.9826V1.13993H88.6375ZM92.8142 4.00061L92.8188 3.9048L94.1419 0.806865H94.4659V0.902678L93.1427 4.00061H92.8142ZM91.3725 4.00061V0.806865H91.7147V4.00061H91.3725ZM92.8188 4.00061L91.4911 0.902678V0.806865H91.8196L93.1427 3.9048V4.00061H92.8188ZM94.2423 4.00061V0.806865H94.5845V4.00061H94.2423Z" fill="white"/>
</svg>
